C:\GBW_MyPrograms\KinderuniversiteitApp\Resultaten\Model_test\Model_test_v1.mot
version=1
nRows=6
nColumns=31
inDegrees=yes
endheader
                time	         pelvis_tilt	           pelvis_tx	           pelvis_ty	       hip_flexion_r	        knee_angle_r	       ankle_angle_r	       hip_flexion_l	        knee_angle_l	       ankle_angle_l	    lumbar_extension	          arm_flex_r	          arm_flex_l	hamstrings_r/activation	bifemsh_r/activation	glut_max_r/activation	iliopsoas_r/activation	rect_fem_r/activation	  vasti_r/activation	gastroc_r/activation	 soleus_r/activation	tib_ant_r/activation	hamstrings_l/activation	bifemsh_l/activation	glut_max_l/activation	iliopsoas_l/activation	rect_fem_l/activation	  vasti_l/activation	gastroc_l/activation	 soleus_l/activation	tib_ant_l/activation	
          0.32990729	         -5.39656304	          0.43877666	          0.43083920	        -13.22486756	         -2.38332750	          0.57004343	         37.43558480	         -7.70347810	        -27.31252628	        -14.90573323	         37.24894107	         37.24602444	          0.62475545	          0.88471368	          0.20338613	          0.88061192	          0.14889454	          0.17282473	          0.86208925	          0.95700504	          0.31560290	          0.91636318	          0.38061751	          0.61381599	          0.11372157	          0.11484034	          0.15118674	          0.21409910	          0.06752007	          0.16872446	
          0.33650544	         -5.56082543	          0.44918316	          0.42874774	        -13.51689729	         -4.02110710	         -0.11631859	         37.92475460	         -9.68884532	        -27.60407853	        -14.34252826	         38.25951854	         38.25656864	          0.56518174	          0.79818050	          0.18854770	          0.79344868	          0.13431605	          0.15582084	          0.77690319	          0.86241345	          0.28435230	          0.94186100	          0.34301882	          0.73171223	          0.10246426	          0.10348392	          0.13626341	          0.19293237	          0.06085212	          0.42255796	
          0.34310359	         -5.69972804	          0.45991439	          0.42684341	        -13.63862601	         -6.03315307	         -1.10575976	         38.07943971	        -11.91088748	        -28.17874069	        -13.67671241	         39.43472955	         39.43174603	          0.51143123	          0.71943498	          0.43594528	          0.71488704	          0.32389373	          0.14058242	          0.70004109	          0.77704046	          0.25620105	          0.95956825	          0.30912567	          0.81362122	          0.09232120	          0.09325159	          0.12343887	          0.17386360	          0.05483575	          0.38144220	
          0.34970173	         -5.84910655	          0.47080631	          0.42522097	        -13.53854299	         -8.36278161	         -2.55368544	         38.04402220	        -14.14335629	        -27.85759888	        -12.92572926	         40.77293121	         40.76991252	          0.46331430	          0.64830317	          0.60820892	          0.64408746	          0.29198021	          0.13504356	          0.63076471	          0.70009840	          0.23084784	          0.97185979	          0.27855436	          0.87053253	          0.08318086	          0.08403702	          0.39115394	          0.15672600	          0.10923320	          0.34366148	
          0.35629988	         -6.03379920	          0.48147099	          0.42415870	        -13.08599044	        -11.04996729	         -4.62514814	         38.13205949	        -16.63023297	        -26.51861717	        -12.19405931	         42.26846246	         42.26543019	          0.41738274	          0.58422589	          0.63958340	          0.58039835	          0.50693796	          0.13703396	          0.56835148	          0.63077056	          0.46545142	          0.98036593	          0.25101317	          0.91004385	          0.07494767	          0.07574415	          0.57709648	          0.14125321	          0.09844348	          0.30964786	
          0.36289802	         -6.25866727	          0.49168251	          0.42376457	        -12.26556002	        -14.04153115	         -7.26873461	         38.51713687	        -19.55743277	        -24.39514869	        -11.54576989	         43.90024435	         43.89729883	          0.37616902	          0.52651462	          0.74888609	          0.52305918	          0.51183768	          0.12436526	          0.51219812	          0.56834350	          0.62872289	          0.98629145	          0.22619909	          0.93749443	          0.06752971	          0.06826714	          0.70624821	          0.12730413	          0.08870511	          0.27900657	
